<svg xmlns="http://www.w3.org/2000/svg" xmlns:xlink="http://www.w3.org/1999/xlink" width="0" height="0" style="display:none;"><symbol viewBox="0 0 24 24" id="qq-line"><path d="M17.5359 12.5144L16.8402 10.7175C16.8408 10.6968 16.8494 10.3429 16.8494 10.1604C16.8494 7.08792 15.448 4.0003 12.0012 4C8.55459 4.0003 7.15292 7.08792 7.15292 10.1604C7.15292 10.3429 7.16151 10.6968 7.16209 10.7175L6.4667 12.5144C6.27608 13.0285 6.08776 13.564 5.94988 14.0232C5.29262 16.2126 5.50559 17.1186 5.66783 17.139C6.01581 17.1823 7.02221 15.4908 7.02221 15.4908C7.02221 16.4704 7.5095 17.7487 8.56405 18.6719C8.16963 18.7976 7.68635 18.9911 7.37564 19.2284C7.09645 19.442 7.13142 19.6594 7.18158 19.7473C7.40258 20.1329 10.9713 19.9935 12.0017 19.8733C13.0319 19.9935 16.6009 20.1329 16.8216 19.7473C16.872 19.6594 16.9067 19.442 16.6275 19.2284C16.3168 18.9911 15.8333 18.7976 15.4386 18.6716C16.4928 17.7487 16.9801 16.4704 16.9801 15.4908C16.9801 15.4908 17.9868 17.1823 18.3348 17.139C18.4967 17.1186 18.7131 16.2108 18.0524 14.0232C17.9125 13.56 17.7265 13.0285 17.5359 12.5144ZM18.5574 20.7407C18.1843 21.3926 17.7237 21.6334 17.1187 21.7981C16.8792 21.8633 16.621 21.9056 16.325 21.936C15.8844 21.9814 15.3392 22.001 14.712 22C13.786 21.9985 12.693 21.9491 12.0017 21.884C11.3103 21.9491 10.2173 21.9985 9.29129 22C8.66414 22.001 8.11889 21.9814 7.67832 21.936C7.38236 21.9056 7.12409 21.8633 6.88467 21.7981C6.27994 21.6335 5.81954 21.393 5.44496 20.7393C5.15165 20.2258 5.07747 19.6406 5.20612 19.0866C4.61376 18.9546 4.20483 18.6045 3.92733 18.1757C3.77911 17.9466 3.68408 17.7127 3.61845 17.4663C3.53001 17.1344 3.49486 16.7666 3.50184 16.3601C3.51532 15.5749 3.68902 14.5984 4.03435 13.4481C4.17427 12.9821 4.3614 12.4396 4.6015 11.7926L5.15467 10.3632C5.1536 10.287 5.15292 10.2154 5.15292 10.1604C5.15292 5.6047 7.58875 2.00038 12.0013 2C16.4138 2.00038 18.8494 5.60454 18.8494 10.1604C18.8494 10.2154 18.8487 10.2869 18.8477 10.3631L19.401 11.7923L19.4112 11.8191C19.636 12.4254 19.8242 12.9722 19.967 13.445C20.3145 14.5956 20.4889 15.5735 20.5018 16.361C20.5085 16.768 20.4728 17.1365 20.3837 17.4689C20.3178 17.7148 20.2226 17.9483 20.0746 18.1768C19.7976 18.6041 19.3905 18.9532 18.7974 19.0862C18.9266 19.6411 18.8523 20.2274 18.5574 20.7407Z"></path></symbol><symbol viewBox="0 0 24 24" id="github-line"><path d="M5.88401 18.6533C5.58404 18.4526 5.32587 18.1975 5.0239 17.8369C4.91473 17.7065 4.47283 17.1524 4.55811 17.2583C4.09533 16.6833 3.80296 16.417 3.50156 16.3089C2.9817 16.1225 2.7114 15.5499 2.89784 15.0301C3.08428 14.5102 3.65685 14.2399 4.17672 14.4263C4.92936 14.6963 5.43847 15.1611 6.12425 16.0143C6.03025 15.8974 6.46364 16.441 6.55731 16.5529C6.74784 16.7804 6.88732 16.9182 6.99629 16.9911C7.20118 17.1283 7.58451 17.1874 8.14709 17.1311C8.17065 16.7489 8.24136 16.3783 8.34919 16.0358C5.38097 15.3104 3.70116 13.3952 3.70116 9.63971C3.70116 8.40085 4.0704 7.28393 4.75917 6.3478C4.5415 5.45392 4.57433 4.37284 5.06092 3.15636C5.1725 2.87739 5.40361 2.66338 5.69031 2.57352C5.77242 2.54973 5.81791 2.53915 5.89878 2.52673C6.70167 2.40343 7.83573 2.69705 9.31449 3.62336C10.181 3.41879 11.0885 3.315 12.0012 3.315C12.9129 3.315 13.8196 3.4186 14.6854 3.62277C16.1619 2.69 17.2986 2.39649 18.1072 2.52651C18.1919 2.54013 18.2645 2.55783 18.3249 2.57766C18.6059 2.66991 18.8316 2.88179 18.9414 3.15636C19.4279 4.37256 19.4608 5.45344 19.2433 6.3472C19.9342 7.28337 20.3012 8.39208 20.3012 9.63971C20.3012 13.3968 18.627 15.3048 15.6588 16.032C15.7837 16.447 15.8496 16.9105 15.8496 17.4121C15.8496 18.0765 15.8471 18.711 15.8424 19.4225C15.8412 19.6127 15.8397 19.8159 15.8375 20.1281C16.2129 20.2109 16.5229 20.5077 16.6031 20.9089C16.7114 21.4504 16.3602 21.9773 15.8186 22.0856C14.6794 22.3134 13.8353 21.5538 13.8353 20.5611C13.8353 20.4708 13.836 20.3417 13.8375 20.1145C13.8398 19.8015 13.8412 19.599 13.8425 19.4094C13.8471 18.7019 13.8496 18.0716 13.8496 17.4121C13.8496 16.7148 13.6664 16.2602 13.4237 16.051C12.7627 15.4812 13.0977 14.3973 13.965 14.2999C16.9314 13.9666 18.3012 12.8177 18.3012 9.63971C18.3012 8.68508 17.9893 7.89571 17.3881 7.23559C17.1301 6.95233 17.0567 6.54659 17.199 6.19087C17.3647 5.77663 17.4354 5.23384 17.2941 4.57702L17.2847 4.57968C16.7928 4.71886 16.1744 5.0198 15.4261 5.5285C15.182 5.69438 14.8772 5.74401 14.5932 5.66413C13.7729 5.43343 12.8913 5.315 12.0012 5.315C11.111 5.315 10.2294 5.43343 9.40916 5.66413C9.12662 5.74359 8.82344 5.69492 8.57997 5.53101C7.8274 5.02439 7.2056 4.72379 6.71079 4.58376C6.56735 5.23696 6.63814 5.77782 6.80336 6.19087C6.94565 6.54659 6.87219 6.95233 6.61423 7.23559C6.01715 7.8912 5.70116 8.69376 5.70116 9.63971C5.70116 12.8116 7.07225 13.9683 10.023 14.2999C10.8883 14.3971 11.2246 15.4769 10.5675 16.0482C10.3751 16.2156 10.1384 16.7802 10.1384 17.4121V20.5611C10.1384 21.5474 9.30356 22.2869 8.17878 22.09C7.63476 21.9948 7.27093 21.4766 7.36613 20.9326C7.43827 20.5204 7.75331 20.2116 8.13841 20.1276V19.1381C7.22829 19.1994 6.47656 19.0498 5.88401 18.6533Z"></path></symbol><symbol viewBox="0 0 24 24" id="bilibili-line"><path d="M7.17157 2.75737L10.414 5.99948H13.585L16.8284 2.75737C17.219 2.36685 17.8521 2.36685 18.2426 2.75737C18.6332 3.1479 18.6332 3.78106 18.2426 4.17158L16.414 5.99948L18.5 6.00001C20.433 6.00001 22 7.56701 22 9.50001V17.5C22 19.433 20.433 21 18.5 21H5.5C3.567 21 2 19.433 2 17.5V9.50001C2 7.56701 3.567 6.00001 5.5 6.00001L7.585 5.99948L5.75736 4.17158C5.36684 3.78106 5.36684 3.1479 5.75736 2.75737C6.14788 2.36685 6.78105 2.36685 7.17157 2.75737ZM18.5 8.00001H5.5C4.7203 8.00001 4.07955 8.5949 4.00687 9.35555L4 9.50001V17.5C4 18.2797 4.59489 18.9205 5.35554 18.9931L5.5 19H18.5C19.2797 19 19.9204 18.4051 19.9931 17.6445L20 17.5V9.50001C20 8.67158 19.3284 8.00001 18.5 8.00001ZM8 11C8.55228 11 9 11.4477 9 12V14C9 14.5523 8.55228 15 8 15C7.44772 15 7 14.5523 7 14V12C7 11.4477 7.44772 11 8 11ZM16 11C16.5523 11 17 11.4477 17 12V14C17 14.5523 16.5523 15 16 15C15.4477 15 15 14.5523 15 14V12C15 11.4477 15.4477 11 16 11Z"></path></symbol><symbol viewBox="0 0 24 24" id="wechat-2-line"><path d="M8.66725 11.5114C7.94997 11.5114 7.38211 10.9432 7.38211 10.2255C7.38211 9.50784 7.94997 8.93968 8.66725 8.93968C9.38454 8.93968 9.95239 9.50784 9.95239 10.2255C9.95239 10.9432 9.38454 11.5114 8.66725 11.5114ZM15.3339 11.5114C14.6166 11.5114 14.0488 10.9432 14.0488 10.2255C14.0488 9.50784 14.6166 8.93968 15.3339 8.93968C16.0512 8.93968 16.6191 9.50784 16.6191 10.2255C16.6191 10.9432 16.0512 11.5114 15.3339 11.5114ZM6.82289 19.2153L7.53841 18.7789C8.34812 18.2851 9.30697 18.095 10.2438 18.2426C10.4553 18.2759 10.6292 18.3015 10.7634 18.3192C11.1696 18.3728 11.5828 18.4 12.0006 18.4C16.4213 18.4 19.9006 15.3776 19.9006 11.8C19.9006 8.22235 16.4213 5.19995 12.0006 5.19995C7.57986 5.19995 4.10059 8.22235 4.10059 11.8C4.10059 13.1655 4.60024 14.4728 5.53227 15.5809C5.58056 15.6383 5.65277 15.7177 5.74666 15.8155C6.54199 16.6438 6.94301 17.7739 6.84765 18.9182L6.82289 19.2153ZM6.19286 21.9423C6.00989 22.0566 5.79484 22.1087 5.57981 22.0908C5.02944 22.045 4.62045 21.5616 4.66631 21.0112L4.85456 18.7521C4.90224 18.1799 4.70173 17.6149 4.30407 17.2008C4.1819 17.0735 4.08111 16.9627 4.0017 16.8683C2.80622 15.447 2.10059 13.6951 2.10059 11.8C2.10059 7.0503 6.53297 3.19995 12.0006 3.19995C17.4682 3.19995 21.9006 7.0503 21.9006 11.8C21.9006 16.5496 17.4682 20.4 12.0006 20.4C11.4911 20.4 10.9906 20.3665 10.5018 20.302C10.3491 20.2819 10.1593 20.254 9.93256 20.2182C9.46412 20.1444 8.9847 20.2395 8.57985 20.4864L6.19286 21.9423Z"></path></symbol><symbol viewBox="0 0 24 24" id="gamepad-line"><path d="M17 4C20.3137 4 23 6.68629 23 10V14C23 17.3137 20.3137 20 17 20H7C3.68629 20 1 17.3137 1 14V10C1 6.68629 3.68629 4 7 4H17ZM17 6H7C4.8578 6 3.10892 7.68397 3.0049 9.80036L3 10V14C3 16.1422 4.68397 17.8911 6.80036 17.9951L7 18H17C19.1422 18 20.8911 16.316 20.9951 14.1996L21 14V10C21 7.8578 19.316 6.10892 17.1996 6.0049L17 6ZM10 9V11H12V13H9.999L10 15H8L7.999 13H6V11H8V9H10ZM18 13V15H16V13H18ZM16 9V11H14V9H16Z"></path></symbol><symbol viewBox="0 0 24 24" id="reserved-line"><path d="M13 15V19H16V21H8V19H11V15H4C3.44772 15 3 14.5523 3 14V4C3 3.44772 3.44772 3 4 3H20C20.5523 3 21 3.44772 21 4V14C21 14.5523 20.5523 15 20 15H13ZM5 13H19V5H5V13ZM8 8H16V10H8V8Z"></path></symbol><symbol viewBox="0 0 24 24" id="arrow-left-s-line"><path d="M10.8284 12.0007L15.7782 16.9504L14.364 18.3646L8 12.0007L14.364 5.63672L15.7782 7.05093L10.8284 12.0007Z"></path></symbol><symbol viewBox="0 0 24 24" id="arrow-right-s-line"><path d="M13.1717 12.0007L8.22192 7.05093L9.63614 5.63672L16.0001 12.0007L9.63614 18.3646L8.22192 16.9504L13.1717 12.0007Z"></path></symbol></svg>